<?xml version="1.0" encoding="utf-8"?>
<!-- Generator: Adobe Illustrator 24.0.1, SVG Export Plug-In . SVG Version: 6.00 Build 0)  -->
<svg version="1.1" xmlns="http://www.w3.org/2000/svg" xmlns:xlink="http://www.w3.org/1999/xlink" x="0px" y="0px"
	 viewBox="0 0 692 362.3" style="enable-background:new 0 0 692 362.3;" xml:space="preserve">
<style type="text/css">
	.st0{fill:#FFFFFF;}
	.st1{opacity:0.9;fill:none;stroke:#F26739;stroke-width:2;stroke-miterlimit:10;}
	.st2{fill:none;stroke:#F26739;stroke-width:1.5;stroke-miterlimit:10;}
	.st3{fill:#F26739;}
	.st4{fill:none;stroke:#F26739;stroke-width:2;stroke-miterlimit:10;}
	.st5{fill:none;stroke:#F26739;stroke-miterlimit:10;}
</style>
<g id="Desktop_Fill">
	<path class="st0" d="M438.5,13.3H53c-3,0-5.4,2.4-5.4,5.4v266.5c0,3,2.4,5.4,5.4,5.4h164.1l-3.2,49.5h-21.2c-1.6,0-2.8,1.3-2.8,2.8
		v8.5h112.3V343c0-1.6-1.3-2.8-2.8-2.8H278l-3.2-49.5h163.7c3,0,5.4-2.4,5.4-5.4V18.7C443.9,15.8,441.5,13.3,438.5,13.3z"/>
</g>
<g id="Desktop">
	<path class="st1" d="M438.5,290.7H53c-3,0-5.4-2.4-5.4-5.4V18.7c0-3,2.4-5.4,5.4-5.4h385.5c3,0,5.4,2.4,5.4,5.4v266.5
		C443.9,288.3,441.5,290.7,438.5,290.7z"/>
	<path class="st1" d="M417.8,237.1H73.6c-1,0-1.8-0.8-1.8-1.8V38.4c0-1,0.8-1.8,1.8-1.8h344.2c1,0,1.8,0.8,1.8,1.8v196.9
		C419.6,236.3,418.8,237.1,417.8,237.1z"/>
	<circle class="st2" cx="245.9" cy="266" r="7.1"/>
	<path class="st2" d="M302.1,351.5H189.8V343c0-1.6,1.3-2.8,2.8-2.8h106.6c1.6,0,2.8,1.3,2.8,2.8V351.5z"/>
	<polygon class="st2" points="278,340.2 213.9,340.2 217.1,290.7 274.8,290.7 	"/>
</g>
<g id="Desktop_Design_Page_II">
	<circle class="st3" cx="88.5" cy="47.8" r="3.5"/>
	<circle class="st3" cx="100" cy="47.8" r="3.5"/>
	<circle class="st3" cx="111.5" cy="47.8" r="3.5"/>
	<line class="st2" x1="71.8" y1="59" x2="419.9" y2="59"/>
	<path class="st2" d="M238.4,122.7h-97.3c-0.6,0-1-0.4-1-1V74.9c0-0.6,0.4-1,1-1h97.3c0.6,0,1,0.4,1,1v46.8
		C239.4,122.2,239,122.7,238.4,122.7z"/>
	<path class="st2" d="M351.9,138.6V169c0,0.6-0.4,1-1,1H219.3c-0.6,0-1-0.4-1-1v-30.4c0-0.6,0.4-1,1-1h131.6
		C351.5,137.6,351.9,138,351.9,138.6z"/>
	<path class="st2" d="M205.1,138.6v77.9c0,0.6-0.4,1-1,1h-63c-0.6,0-1-0.4-1-1v-77.9c0-0.6,0.4-1,1-1h63
		C204.6,137.6,205.1,138,205.1,138.6z"/>
	<line class="st2" x1="140.9" y1="74.1" x2="238.5" y2="122.4"/>
	<line class="st2" x1="238.5" y1="74.1" x2="140.9" y2="122.4"/>
	<path class="st2" d="M350.9,122.7h-97.3c-0.6,0-1-0.4-1-1V74.9c0-0.6,0.4-1,1-1h97.3c0.6,0,1,0.4,1,1v46.8
		C351.9,122.2,351.5,122.7,350.9,122.7z"/>
	<line class="st2" x1="253.4" y1="74.1" x2="351" y2="122.4"/>
	<line class="st2" x1="351" y1="74.1" x2="253.4" y2="122.4"/>
	<path class="st2" d="M351.9,185.9v30.4c0,0.6-0.4,1-1,1H219.3c-0.6,0-1-0.4-1-1v-30.4c0-0.6,0.4-1,1-1h131.6
		C351.5,184.9,351.9,185.4,351.9,185.9z"/>
</g>
<g id="Laptop_Fill">
	<path class="st0" d="M650.7,334.7c3,0,5.4-2.4,5.4-5.4V150.2c0-3-2.4-5.4-5.4-5.4H378.1c-3,0-5.4,2.4-5.4,5.4v179.1
		c0,3,2.4,5.4,5.4,5.4h-26v12.6c0,2.3,1.9,4.2,4.2,4.2h316.1c2.3,0,4.2-1.9,4.2-4.2v-12.6H650.7z"/>
</g>
<g id="Laptop">
	<path class="st4" d="M650.7,334.7H378.1c-3,0-5.4-2.4-5.4-5.4V150.2c0-3,2.4-5.4,5.4-5.4h272.6c3,0,5.4,2.4,5.4,5.4v179.1
		C656.1,332.3,653.7,334.7,650.7,334.7z"/>
	<path class="st2" d="M642.4,317.4H386.9c-1,0-1.8-0.8-1.8-1.8V164.1c0-1,0.8-1.8,1.8-1.8h255.5c1,0,1.8,0.8,1.8,1.8v151.5
		C644.2,316.6,643.4,317.4,642.4,317.4z"/>
	<path class="st4" d="M672.4,351.5H356.3c-2.3,0-4.2-1.9-4.2-4.2v-12.6h324.5v12.6C676.6,349.6,674.8,351.5,672.4,351.5z"/>
	<path class="st2" d="M531.3,343.1h-33.7c-2.3,0-4.2-1.9-4.2-4.2v-4.2h42.1v4.2C535.5,341.2,533.6,343.1,531.3,343.1z"/>
</g>
<g id="Laptop_Coding_Page">
	<line class="st2" x1="644.2" y1="185" x2="384.8" y2="185"/>
	<circle class="st3" cx="401.3" cy="173.7" r="3.5"/>
	<circle class="st3" cx="412.8" cy="173.7" r="3.5"/>
	<circle class="st3" cx="424.5" cy="173.7" r="3.5"/>
	<path class="st3" d="M425.8,212.6H417c-0.3,0-0.6-0.3-0.6-0.6v-1.2c0-0.3,0.3-0.6,0.6-0.6h8.9c0.3,0,0.6,0.3,0.6,0.6v1.2
		C426.4,212.4,426.2,212.6,425.8,212.6z"/>
	<path class="st3" d="M452.2,212.6h-18.4c-0.3,0-0.6-0.3-0.6-0.6v-1.2c0-0.3,0.3-0.6,0.6-0.6h18.4c0.3,0,0.6,0.3,0.6,0.6v1.2
		C452.8,212.4,452.6,212.6,452.2,212.6z"/>
	<path class="st3" d="M477.5,212.6h-18.4c-0.3,0-0.6-0.3-0.6-0.6v-1.2c0-0.3,0.3-0.6,0.6-0.6h18.4c0.3,0,0.6,0.3,0.6,0.6v1.2
		C478.1,212.4,477.8,212.6,477.5,212.6z"/>
	<path class="st3" d="M515.7,212.6h-31.3c-0.3,0-0.6-0.3-0.6-0.6v-1.2c0-0.3,0.3-0.6,0.6-0.6h31.3c0.3,0,0.6,0.3,0.6,0.6v1.2
		C516.3,212.4,516,212.6,515.7,212.6z"/>
	<path class="st3" d="M567.3,212.6h-44.8c-0.3,0-0.6-0.3-0.6-0.6v-1.2c0-0.3,0.3-0.6,0.6-0.6h44.8c0.3,0,0.6,0.3,0.6,0.6v1.2
		C567.9,212.4,567.6,212.6,567.3,212.6z"/>
	<path class="st3" d="M425.8,224.9H417c-0.3,0-0.6-0.3-0.6-0.6V223c0-0.3,0.3-0.6,0.6-0.6h8.9c0.3,0,0.6,0.3,0.6,0.6v1.2
		C426.4,224.6,426.2,224.9,425.8,224.9z"/>
	<path class="st3" d="M471.9,224.9h-38.1c-0.3,0-0.6-0.3-0.6-0.6V223c0-0.3,0.3-0.6,0.6-0.6h38.1c0.3,0,0.6,0.3,0.6,0.6v1.2
		C472.5,224.6,472.2,224.9,471.9,224.9z"/>
	<path class="st3" d="M544.9,224.9h-66.2c-0.3,0-0.6-0.3-0.6-0.6V223c0-0.3,0.3-0.6,0.6-0.6h66.2c0.3,0,0.6,0.3,0.6,0.6v1.2
		C545.5,224.6,545.2,224.9,544.9,224.9z"/>
	<path class="st3" d="M578.6,224.9h-26.9c-0.3,0-0.6-0.3-0.6-0.6V223c0-0.3,0.3-0.6,0.6-0.6h26.9c0.3,0,0.6,0.3,0.6,0.6v1.2
		C579.2,224.6,578.9,224.9,578.6,224.9z"/>
	<path class="st3" d="M425.8,237.1H417c-0.3,0-0.6-0.3-0.6-0.6v-1.2c0-0.3,0.3-0.6,0.6-0.6h8.9c0.3,0,0.6,0.3,0.6,0.6v1.2
		C426.4,236.8,426.2,237.1,425.8,237.1z"/>
	<path class="st3" d="M460.6,237.1h-26.8c-0.3,0-0.6-0.3-0.6-0.6v-1.2c0-0.3,0.3-0.6,0.6-0.6h26.8c0.3,0,0.6,0.3,0.6,0.6v1.2
		C461.2,236.8,461,237.1,460.6,237.1z"/>
	<path class="st3" d="M516.8,237.1h-49.3c-0.3,0-0.6-0.3-0.6-0.6l0-1.2c0-0.3,0.3-0.6,0.6-0.6h49.3c0.3,0,0.6,0.3,0.6,0.6v1.2
		C517.4,236.8,517.1,237.1,516.8,237.1z"/>
	<path class="st3" d="M425.8,249.3H417c-0.3,0-0.6-0.3-0.6-0.6v-1.2c0-0.3,0.3-0.6,0.6-0.6h8.9c0.3,0,0.6,0.3,0.6,0.6v1.2
		C426.4,249,426.2,249.3,425.8,249.3z"/>
	<path class="st3" d="M488.7,249.3h-54.9c-0.3,0-0.6-0.3-0.6-0.6v-1.2c0-0.3,0.3-0.6,0.6-0.6h54.9c0.3,0,0.6,0.3,0.6,0.6v1.2
		C489.3,249,489,249.3,488.7,249.3z"/>
	<path class="st3" d="M533.6,249.3h-38.1c-0.3,0-0.6-0.3-0.6-0.6v-1.2c0-0.3,0.3-0.6,0.6-0.6h38.1c0.3,0,0.6,0.3,0.6,0.6v1.2
		C534.2,249,534,249.3,533.6,249.3z"/>
	<path class="st3" d="M425.8,261.5H417c-0.3,0-0.6-0.3-0.6-0.6v-1.2c0-0.3,0.3-0.6,0.6-0.6h8.9c0.3,0,0.6,0.3,0.6,0.6v1.2
		C426.4,261.2,426.2,261.5,425.8,261.5z"/>
	<path class="st3" d="M488.7,261.5h-54.9c-0.3,0-0.6-0.3-0.6-0.6v-1.2c0-0.3,0.3-0.6,0.6-0.6h54.9c0.3,0,0.6,0.3,0.6,0.6v1.2
		C489.3,261.2,489,261.5,488.7,261.5z"/>
	<path class="st3" d="M567.3,261.5h-71.8c-0.3,0-0.6-0.3-0.6-0.6v-1.2c0-0.3,0.3-0.6,0.6-0.6h71.8c0.3,0,0.6,0.3,0.6,0.6v1.2
		C567.9,261.2,567.6,261.5,567.3,261.5z"/>
	<path class="st3" d="M425.8,298.2H417c-0.3,0-0.6-0.3-0.6-0.6v-1.2c0-0.3,0.3-0.6,0.6-0.6h8.9c0.3,0,0.6,0.3,0.6,0.6v1.2
		C426.4,297.9,426.2,298.2,425.8,298.2z"/>
	<path class="st3" d="M466.2,298.2h-32.4c-0.3,0-0.6-0.3-0.6-0.6v-1.2c0-0.3,0.3-0.6,0.6-0.6h32.4c0.3,0,0.6,0.3,0.6,0.6v1.2
		C466.9,297.9,466.6,298.2,466.2,298.2z"/>
	<path class="st3" d="M425.8,285.9H417c-0.3,0-0.6-0.3-0.6-0.6v-1.2c0-0.3,0.3-0.6,0.6-0.6h8.9c0.3,0,0.6,0.3,0.6,0.6v1.2
		C426.4,285.7,426.2,285.9,425.8,285.9z"/>
	<path class="st3" d="M505.6,285.9h-71.8c-0.3,0-0.6-0.3-0.6-0.6v-1.2c0-0.3,0.3-0.6,0.6-0.6h71.8c0.3,0,0.6,0.3,0.6,0.6v1.2
		C506.2,285.7,505.9,285.9,505.6,285.9z"/>
	<path class="st3" d="M425.8,273.7H417c-0.3,0-0.6-0.3-0.6-0.6v-1.2c0-0.3,0.3-0.6,0.6-0.6h8.9c0.3,0,0.6,0.3,0.6,0.6v1.2
		C426.4,273.5,426.2,273.7,425.8,273.7z"/>
	<path class="st3" d="M471.9,273.7h-38.1c-0.3,0-0.6-0.3-0.6-0.6v-1.2c0-0.3,0.3-0.6,0.6-0.6h38.1c0.3,0,0.6,0.3,0.6,0.6v1.2
		C472.5,273.5,472.2,273.7,471.9,273.7z"/>
	<path class="st3" d="M544.9,273.7h-66.2c-0.3,0-0.6-0.3-0.6-0.6v-1.2c0-0.3,0.3-0.6,0.6-0.6h66.2c0.3,0,0.6,0.3,0.6,0.6v1.2
		C545.5,273.5,545.2,273.7,544.9,273.7z"/>
</g>
<g id="Mobile_Fill">
	<g>
		<path class="st0" d="M81.7,202.3H17.3c-3,0-5.4,2.4-5.4,5.4v138.1c0,3,2.4,5.4,5.4,5.4h64.5c3,0,5.4-2.4,5.4-5.4V207.7
			C87.1,204.8,84.7,202.3,81.7,202.3z"/>
		<path class="st0" d="M81.7,351.9H17.3c-3.4,0-6.1-2.8-6.1-6.1V207.7c0-3.4,2.8-6.1,6.1-6.1h64.5c3.4,0,6.1,2.8,6.1,6.1v138.1
			C87.9,349.2,85.1,351.9,81.7,351.9z M17.3,203.1c-2.6,0-4.6,2.1-4.6,4.6v138.1c0,2.6,2.1,4.6,4.6,4.6h64.5c2.6,0,4.6-2.1,4.6-4.6
			V207.7c0-2.6-2.1-4.6-4.6-4.6H17.3z"/>
	</g>
</g>
<g id="Mobile">
	<line class="st5" x1="11.9" y1="329.1" x2="87.1" y2="329.1"/>
	<circle class="st3" cx="49.6" cy="340" r="4.2"/>
	<line class="st5" x1="11.9" y1="218.7" x2="87.1" y2="218.7"/>
	<path class="st3" d="M38.4,211.8h22.1c0.2,0,0.4-0.2,0.4-0.4v-0.8c0-0.2-0.2-0.4-0.4-0.4H38.4c-0.2,0-0.4,0.2-0.4,0.4v0.8
		C38,211.6,38.2,211.8,38.4,211.8z"/>
	<path class="st2" d="M81.7,202.3H17.3c-3,0-5.4,2.4-5.4,5.4v138.1c0,3,2.4,5.4,5.4,5.4h64.5c3,0,5.4-2.4,5.4-5.4V207.7
		C87.1,204.8,84.7,202.3,81.7,202.3z"/>
</g>
<g id="Mobile_Design_Page">
	<path class="st3" d="M25.5,259.5c-0.9,0-1.6,0.7-1.6,1.6v8.9c0,0.9,0.7,1.6,1.6,1.6c0.9,0,1.6-0.7,1.6-1.6v-8.9
		C27.1,260.3,26.4,259.5,25.5,259.5z"/>
	<path class="st3" d="M32.5,271.6c0.9,0,1.6-0.7,1.6-1.6v-16.1c0-0.9-0.7-1.6-1.6-1.6c-0.9,0-1.6,0.7-1.6,1.6V270
		C30.9,270.9,31.6,271.6,32.5,271.6z"/>
	<path class="st3" d="M39.4,241.4c-0.9,0-1.6,0.7-1.6,1.6v27c0,0.9,0.7,1.6,1.6,1.6c0.9,0,1.6-0.7,1.6-1.6V243
		C41,242.1,40.3,241.4,39.4,241.4z"/>
	<path class="st3" d="M46.3,271.6c0.9,0,1.6-0.7,1.6-1.6v-23.3c0-0.9-0.7-1.6-1.6-1.6s-1.6,0.7-1.6,1.6V270
		C44.8,270.9,45.5,271.6,46.3,271.6z"/>
	<path class="st3" d="M53.3,271.6c0.9,0,1.6-0.7,1.6-1.6v-32.4c0-0.9-0.7-1.6-1.6-1.6c-0.9,0-1.6,0.7-1.6,1.6V270
		C51.7,270.9,52.4,271.6,53.3,271.6z"/>
	<path class="st3" d="M60.2,271.6c0.9,0,1.6-0.7,1.6-1.6v-28.8c0-0.9-0.7-1.6-1.6-1.6c-0.9,0-1.6,0.7-1.6,1.6V270
		C58.6,270.9,59.3,271.6,60.2,271.6z"/>
	<path class="st3" d="M67.1,271.6c0.9,0,1.6-0.7,1.6-1.6v-16.1c0-0.9-0.7-1.6-1.6-1.6s-1.6,0.7-1.6,1.6V270
		C65.6,270.9,66.3,271.6,67.1,271.6z"/>
	<path class="st3" d="M74.1,259.5c-0.9,0-1.6,0.7-1.6,1.6v8.9c0,0.9,0.7,1.6,1.6,1.6c0.9,0,1.6-0.7,1.6-1.6v-8.9
		C75.7,260.3,74.9,259.5,74.1,259.5z"/>
	<path class="st3" d="M69.1,282.5H43.9c-0.9,0-1.6,0.7-1.6,1.6c0,0.9,0.7,1.6,1.6,1.6h25.3c0.9,0,1.6-0.7,1.6-1.6
		C70.7,283.2,70,282.5,69.1,282.5z"/>
	<path class="st3" d="M69.1,294.2H43.9c-0.9,0-1.6,0.7-1.6,1.6s0.7,1.6,1.6,1.6h25.3c0.9,0,1.6-0.7,1.6-1.6S70,294.2,69.1,294.2z"/>
	<path class="st3" d="M69.1,305.9H43.9c-0.9,0-1.6,0.7-1.6,1.6s0.7,1.6,1.6,1.6h25.3c0.9,0,1.6-0.7,1.6-1.6S70,305.9,69.1,305.9z"/>
	<circle class="st2" cx="33.6" cy="284.1" r="3.4"/>
	<circle class="st2" cx="33.6" cy="295.8" r="3.4"/>
	<circle class="st2" cx="33.6" cy="307.5" r="3.4"/>
</g>
<g id="Layer_10">
</g>
</svg>
